#N canvas 126 35 984 678 10;
#X msg 46 118 disconnect;
#X obj 46 513 sendOSC;
#X msg 46 99 connect 127.0.0.1 12000;
#X obj 677 75 dumpOSC 12001;
#X obj 677 233 unpack f f;
#X obj 677 94 OSCroute /tac;
#X obj 46 80 loadbang;
#X floatatom 677 252 5 0 0 0 - - -;
#X floatatom 734 252 5 0 0 0 - - -;
#X floatatom 96 203 5 0 0 0 - - -;
#X msg 298 423 send /switchDisplayedAnimation;
#X obj 298 406 bng 15 250 50 0 empty empty empty 0 -6 0 10 -262144
-1 -1;
#X obj 904 150 loadbang;
#X msg 904 169 \; pd dsp 1;
#X floatatom 339 158 5 0 0 0 - - -;
#X obj 312 159 bng 15 250 50 0 empty empty empty 17 7 0 10 -262144
-1 -1;
#X obj 671 495 vline~;
#X obj 671 571 *~;
#X obj 740 617 dac~;
#X obj 685 552 osc~;
#X floatatom 409 156 5 0 0 0 - - -;
#X obj 382 157 bng 15 250 50 0 empty empty empty 17 7 0 10 -262144
-1 -1;
#X obj 312 217 bng 15 250 50 0 empty empty empty 17 7 0 10 -262144
-1 -1;
#X obj 312 380 t b b;
#X obj 337 98 bng 15 250 50 0 empty empty empty 17 7 0 10 -262144 -1
-1;
#X obj 337 115 t b b;
#X msg 671 476 0 1 \, 1 5 1 \, 0 500 6;
#X obj 685 533 *~ 100;
#X obj 803 495 vline~;
#X obj 803 571 *~;
#X obj 817 552 osc~;
#X msg 803 476 0 1 \, 1 5 1 \, 0 500 6;
#X obj 671 411 counter;
#X obj 671 430 % 3;
#X obj 671 449 route 0 1 2;
#X obj 817 514 pow~ 15;
#X obj 685 514 pow~ 3;
#X obj 817 533 *~ 50;
#X obj 337 79 loadbang;
#X msg 96 240 send /setGlobalPlayingSpeed \$1;
#X obj 96 221 / 10;
#X obj 312 176 metro 2000;
#X obj 382 174 metro 1800;
#X obj 312 234 spigot;
#X obj 345 217 tgl 15 0 empty empty empty 17 7 0 10 -262144 -1 -1 0
1;
#X obj 399 254 bonk~;
#X obj 399 216 adc~;
#X obj 399 235 +~;
#X obj 503 251 Scope~ 130 130 256 3 128 -1 1 0 0 0 0 102 255 51 135
135 135 0;
#X obj 399 311 bng 15 250 50 0 empty empty empty 17 7 0 10 -262144
-1 -1;
#X obj 399 328 spigot;
#X obj 432 311 tgl 15 0 empty empty empty 17 7 0 10 -262144 -1 -1 1
1;
#X msg 528 208 learn 0;
#X msg 501 189 learn 3;
#X obj 528 170 delay 2000;
#X obj 501 134 bng 15 250 50 0 empty empty empty 17 7 0 10 -262144
-1 -1;
#X obj 501 151 t b b;
#X msg 432 292 1;
#X obj 432 273 loadbang;
#X obj 501 96 loadbang;
#X obj 501 115 metro 3000;
#X connect 0 0 1 0;
#X connect 2 0 1 0;
#X connect 3 0 5 0;
#X connect 4 0 7 0;
#X connect 4 1 8 0;
#X connect 5 0 4 0;
#X connect 6 0 2 0;
#X connect 9 0 40 0;
#X connect 10 0 1 0;
#X connect 11 0 10 0;
#X connect 12 0 13 0;
#X connect 14 0 41 1;
#X connect 15 0 41 0;
#X connect 16 0 17 0;
#X connect 16 0 36 0;
#X connect 19 0 17 1;
#X connect 20 0 42 1;
#X connect 21 0 42 0;
#X connect 22 0 43 0;
#X connect 23 0 11 0;
#X connect 23 1 32 0;
#X connect 24 0 25 0;
#X connect 25 0 15 0;
#X connect 25 1 21 0;
#X connect 26 0 16 0;
#X connect 27 0 19 0;
#X connect 28 0 29 0;
#X connect 28 0 35 0;
#X connect 30 0 29 1;
#X connect 31 0 28 0;
#X connect 32 0 33 0;
#X connect 33 0 34 0;
#X connect 34 0 26 0;
#X connect 34 1 31 0;
#X connect 35 0 37 0;
#X connect 36 0 27 0;
#X connect 37 0 30 0;
#X connect 38 0 24 0;
#X connect 39 0 1 0;
#X connect 40 0 39 0;
#X connect 41 0 22 0;
#X connect 42 0 22 0;
#X connect 43 0 23 0;
#X connect 44 0 43 1;
#X connect 45 0 49 0;
#X connect 46 0 47 0;
#X connect 46 1 47 1;
#X connect 47 0 45 0;
#X connect 47 0 48 0;
#X connect 49 0 50 0;
#X connect 50 0 23 0;
#X connect 51 0 50 1;
#X connect 52 0 45 0;
#X connect 53 0 45 0;
#X connect 54 0 52 0;
#X connect 55 0 56 0;
#X connect 56 0 53 0;
#X connect 56 1 54 0;
#X connect 57 0 51 0;
#X connect 58 0 57 0;
#X connect 59 0 60 0;
#X connect 60 0 55 0;
